{"title":"Tristan + Isolde 2006 BRRip H264 AAC-MS","uid":5665754,"size":1994891851,"categoryP":"video","categoryS":"hd___movies","magnet":"?xt=urn:btih:a8160e629de89b820fefcc58c9fd22514d28ac71&amp;dn=Tristan+%2B+Isolde+2006+BRRip+H264+AAC-MS&amp;tr=udp%3A%2F%2Ftracker.openbittorrent.com%3A80&amp;tr=udp%3A%2F%2Fopen.demonii.com%3A1337&amp;tr=udp%3A%2F%2Ftracker.coppersurfer.tk%3A6969&amp;tr=udp%3A%2F%2Fexodus.desync.com%3A6969","seeders":0,"leechers":1,"uploader":"rev-x","files":6,"time":1278134542,"description":"Tristan and Isolde 2006 BRRip H264 AAC-MS.mp4\nFormat : MPEG-4\nFormat profile : Base Media / Version 2\nCodec ID : mp42\nFile size : 1.86 GiB\nDuration : 2h 5mn\nOverall bit rate : 2 124 Kbps\n\nVideo #1\nFormat : AVC\nFormat/Info : Advanced Video Codec\nFormat profile : &lt;a class=&quot;__cf_email__&quot; href=&quot;/cdn-cgi/l/email-protection&quot; data-cfemail=&quot;8dc5e4eae5cdc1b9a3bc&quot;&gt;[email&amp;#160;protected]&lt;/a&gt;&lt;script cf-hash='f9e31' type=&quot;text/javascript&quot;&gt;\n/* &lt;![CDATA[ */!function(){try{var t=&quot;currentScript&quot;in document?document.currentScript:function(){for(var t=document.getElementsByTagName(&quot;script&quot;),e=t.length;e--;)if(t[e].getAttribute(&quot;cf-hash&quot;))return t[e]}();if(t&amp;&amp;t.previousSibling){var e,r,n,i,c=t.previousSibling,a=c.getAttribute(&quot;data-cfemail&quot;);if(a){for(e=&quot;&quot;,r=parseInt(a.substr(0,2),16),n=2;a.length-n;n+=2)i=parseInt(a.substr(n,2),16)^r,e+=String.fromCharCode(i);e=document.createTextNode(e),c.parentNode.replaceChild(e,c)}}}catch(u){}}();/* ]]&gt; */&lt;/script&gt;\nFormat settings, CABAC : Yes\nFormat settings, ReFrames : 3 frames\nCodec ID : avc1\nCodec ID/Info : Advanced Video Coding\nDuration : 2h 5mn\nBit rate mode : Variable\nBit rate : 1 800 Kbps\nWidth : 1 280 pixels\nHeight : 544 pixels\nDisplay aspect ratio : 2.35\nFrame rate mode : Variable\nFrame rate : 23.976 fps\nMinimum frame rate : 23.810 fps\nMaximum frame rate : 24.390 fps\nResolution : 24 bits\nColorimetry : 4:2:0\nScan type : Progressive\nBits/(Pixel*Frame) : 0.108\nStream size : 1.57 GiB (85%)\nWriting library : x264 core 65\n\nAudio #2\nFormat : AAC\nFormat/Info : Advanced Audio Codec\nFormat version : Version 4\nFormat profile : LC\nFormat settings, SBR : No\nCodec ID : 40\nDuration : 2h 5mn\nBit rate mode : Variable\nBit rate : 320 Kbps\nMaximum bit rate : 490 Kbps\nChannel(s) : 6 channels\nChannel positions : Front: L C R, Rear: L R, LFE\nSampling rate : 48.0 KHz\nResolution : 16 bits\nStream size : 287 MiB (15%)\nLanguage : English\n &lt;a href=&quot;\nhttp://i865.photobucket.com/albums/ab211/revisionx/Movies/TristanAndIsolde-1.jpg&quot; rel=&quot;nofollow&quot; target=&quot;_NEW&quot;&gt;\nhttp://i865.photobucket.com/albums/ab211/revisionx/Movies/TristanAndIsolde-1.jpg&lt;/a&gt;\n\n\nSCREEN: &lt;a href=&quot;\nhttp://i865.photobucket.com/albums/ab211/revisionx/Screenshot/vlcsnap-386593-1.jpg&quot; rel=&quot;nofollow&quot; target=&quot;_NEW&quot;&gt;\nhttp://i865.photobucket.com/albums/ab211/revisionx/Screenshot/vlcsnap-386593-1.jpg&lt;/a&gt; &lt;a href=&quot;\nhttp://i865.photobucket.com/albums/ab211/revisionx/Screenshot/vlcsnap-386180-1.jpg&quot; rel=&quot;nofollow&quot; target=&quot;_NEW&quot;&gt;\nhttp://i865.photobucket.com/albums/ab211/revisionx/Screenshot/vlcsnap-386180-1.jpg&lt;/a&gt; &lt;a href=&quot;\nhttp://i865.photobucket.com/albums/ab211/revisionx/Screenshot/vlcsnap-99046-1.jpg&quot; rel=&quot;nofollow&quot; target=&quot;_NEW&quot;&gt;\nhttp://i865.photobucket.com/albums/ab211/revisionx/Screenshot/vlcsnap-99046-1.jpg&lt;/a&gt;\n\n","torrent":{"xt":"urn:btih:a8160e629de89b820fefcc58c9fd22514d28ac71","amp;dn":"Tristan+%2B+Isolde+2006+BRRip+H264+AAC-MS","amp;tr":["udp%3A%2F%2Ftracker.openbittorrent.com%3A80","udp%3A%2F%2Fopen.demonii.com%3A1337","udp%3A%2F%2Ftracker.coppersurfer.tk%3A6969","udp%3A%2F%2Fexodus.desync.com%3A6969"],"infoHash":"a8160e629de89b820fefcc58c9fd22514d28ac71","infoHashBuffer":{"type":"Buffer","data":[168,22,14,98,157,232,155,130,15,239,204,88,201,253,34,81,77,40,172,113]},"announce":[],"urlList":[]}}